# xmcd
#
# Track frame offsets:
#	150
#	11198
#	25898
#	35811
#	47446
#	59340
#	76546
#	89114
#	102140
#	113426
#	125324
#	136507
#	146835
#	156751
#	166902
#	177471
#	188179
#	200205
#	210702
#	220413
#	231747
#	244605
#	256321
#	267876
#	277427
#
# Disc length: 3912 seconds
#
# Revision: 0
# Processed by: cddbd v1.5.2PL0 Copyright (c) Steve Scherf et al.
# Submitted via: EZCDAudioConverter 8.0.2.1
#
DISCID=740f4619
DTITLE=群星 -  三生三世十里桃花 - 电视原声带[CD3 配乐]
DYEAR=2017
DGENRE=Film
TTITLE0=胭脂
TTITLE1=桃花醉
TTITLE2=糯米团子
TTITLE3=思念
TTITLE4=无妄海
TTITLE5=三世之爱
TTITLE6=三生情愫
TTITLE7=凡间1
TTITLE8=凡间2
TTITLE9=历劫
TTITLE10=伤情
TTITLE11=折颜
TTITLE12=白真
TTITLE13=鲛人族
TTITLE14=离怨
TTITLE15=连宋
TTITLE16=龙宫
TTITLE17=瑶光上神
TTITLE18=天君
TTITLE19=少辛
TTITLE20=二殿下
TTITLE21=子阑
TTITLE22=叠风
TTITLE23=生祭东皇钟
TTITLE24=永世
EXTD=
EXTT0=
EXTT1=
EXTT2=
EXTT3=
EXTT4=
EXTT5=
EXTT6=
EXTT7=
EXTT8=
EXTT9=
EXTT10=
EXTT11=
EXTT12=
EXTT13=
EXTT14=
EXTT15=
EXTT16=
EXTT17=
EXTT18=
EXTT19=
EXTT20=
EXTT21=
EXTT22=
EXTT23=
EXTT24=
PLAYORDER=
